<svg width="62" height="43" viewBox="0 0 62 43" fill="none" xmlns="http://www.w3.org/2000/svg">
<path d="M30.15 0.0292222C15.45 -0.720777 0 13.0792 0 28.3792C0 37.8292 5.85 42.3292 12.3 42.3292C20.4 42.3292 26.55 35.7292 26.55 28.6792C26.55 22.3792 22.05 17.5792 15.9 17.5792C10.8 17.5792 18.6 4.82922 29.25 4.82922L30.15 0.0292222ZM61.8 0.0292222C47.1 -0.720777 31.65 13.0792 31.65 28.3792C31.65 37.8292 37.5 42.3292 43.95 42.3292C52.05 42.3292 58.2 35.7292 58.2 28.6792C58.2 22.3792 53.55 17.5792 47.55 17.5792C42.45 17.5792 50.1 4.82922 60.9 4.82922L61.8 0.0292222Z" fill="#F4F4F6"/>
</svg>
